<mxfile host="app.diagrams.net" agent="Mozilla/5.0 (X11; Linux x86_64) AppleWebKit/537.36 (KHTML, like Gecko) Chrome/129.0.0.0 Safari/537.36" version="24.7.16">
  <diagram id="C5RBs43oDa-KdzZeNtuy" name="Page-1">
    <mxGraphModel dx="2390" dy="1313" grid="1" gridSize="10" guides="1" tooltips="1" connect="1" arrows="1" fold="1" page="1" pageScale="1" pageWidth="827" pageHeight="1169" math="0" shadow="0">
      <root>
        <mxCell id="WIyWlLk6GJQsqaUBKTNV-0" />
        <mxCell id="WIyWlLk6GJQsqaUBKTNV-1" parent="WIyWlLk6GJQsqaUBKTNV-0" />
        <mxCell id="DaekT4KArlIRizC1PIeq-63" style="edgeStyle=orthogonalEdgeStyle;rounded=0;orthogonalLoop=1;jettySize=auto;html=1;entryX=0;entryY=0.5;entryDx=0;entryDy=0;" edge="1" parent="WIyWlLk6GJQsqaUBKTNV-1" source="DaekT4KArlIRizC1PIeq-67" target="DaekT4KArlIRizC1PIeq-82">
          <mxGeometry relative="1" as="geometry">
            <Array as="points">
              <mxPoint x="380" y="300" />
              <mxPoint x="380" y="410" />
            </Array>
          </mxGeometry>
        </mxCell>
        <mxCell id="DaekT4KArlIRizC1PIeq-64" style="edgeStyle=orthogonalEdgeStyle;rounded=0;orthogonalLoop=1;jettySize=auto;html=1;entryX=1;entryY=0.5;entryDx=0;entryDy=0;" edge="1" parent="WIyWlLk6GJQsqaUBKTNV-1" source="DaekT4KArlIRizC1PIeq-67" target="DaekT4KArlIRizC1PIeq-82">
          <mxGeometry relative="1" as="geometry">
            <mxPoint x="610" y="430" as="targetPoint" />
            <Array as="points">
              <mxPoint x="600" y="300" />
              <mxPoint x="600" y="301" />
              <mxPoint x="610" y="301" />
              <mxPoint x="610" y="410" />
            </Array>
          </mxGeometry>
        </mxCell>
        <mxCell id="DaekT4KArlIRizC1PIeq-65" style="edgeStyle=orthogonalEdgeStyle;rounded=0;orthogonalLoop=1;jettySize=auto;html=1;entryX=0;entryY=0.5;entryDx=0;entryDy=0;" edge="1" parent="WIyWlLk6GJQsqaUBKTNV-1" source="DaekT4KArlIRizC1PIeq-67" target="DaekT4KArlIRizC1PIeq-98">
          <mxGeometry relative="1" as="geometry">
            <Array as="points">
              <mxPoint x="860" y="290" />
              <mxPoint x="860" y="410" />
            </Array>
          </mxGeometry>
        </mxCell>
        <mxCell id="DaekT4KArlIRizC1PIeq-66" style="edgeStyle=orthogonalEdgeStyle;rounded=0;orthogonalLoop=1;jettySize=auto;html=1;entryX=0.5;entryY=0;entryDx=0;entryDy=0;" edge="1" parent="WIyWlLk6GJQsqaUBKTNV-1" source="DaekT4KArlIRizC1PIeq-67" target="DaekT4KArlIRizC1PIeq-113">
          <mxGeometry relative="1" as="geometry" />
        </mxCell>
        <mxCell id="DaekT4KArlIRizC1PIeq-67" value="Employee" style="rounded=0;whiteSpace=wrap;html=1;fillColor=#f8cecc;strokeColor=#b85450;" vertex="1" parent="WIyWlLk6GJQsqaUBKTNV-1">
          <mxGeometry x="424" y="260" width="120" height="60" as="geometry" />
        </mxCell>
        <mxCell id="DaekT4KArlIRizC1PIeq-68" value="" style="edgeStyle=orthogonalEdgeStyle;rounded=0;orthogonalLoop=1;jettySize=auto;html=1;" edge="1" parent="WIyWlLk6GJQsqaUBKTNV-1" source="DaekT4KArlIRizC1PIeq-69" target="DaekT4KArlIRizC1PIeq-67">
          <mxGeometry relative="1" as="geometry" />
        </mxCell>
        <mxCell id="DaekT4KArlIRizC1PIeq-69" value="ID&lt;div&gt;------&lt;/div&gt;" style="ellipse;whiteSpace=wrap;html=1;fillColor=#a0522d;fontColor=#ffffff;strokeColor=#6D1F00;" vertex="1" parent="WIyWlLk6GJQsqaUBKTNV-1">
          <mxGeometry x="480" y="10" width="110" height="40" as="geometry" />
        </mxCell>
        <mxCell id="DaekT4KArlIRizC1PIeq-70" style="edgeStyle=orthogonalEdgeStyle;rounded=0;orthogonalLoop=1;jettySize=auto;html=1;" edge="1" parent="WIyWlLk6GJQsqaUBKTNV-1" source="DaekT4KArlIRizC1PIeq-71" target="DaekT4KArlIRizC1PIeq-67">
          <mxGeometry relative="1" as="geometry">
            <Array as="points">
              <mxPoint x="560" y="65" />
              <mxPoint x="560" y="240" />
              <mxPoint x="510" y="240" />
            </Array>
          </mxGeometry>
        </mxCell>
        <mxCell id="DaekT4KArlIRizC1PIeq-71" value="Name" style="ellipse;whiteSpace=wrap;html=1;fillColor=#a0522d;fontColor=#ffffff;strokeColor=#6D1F00;" vertex="1" parent="WIyWlLk6GJQsqaUBKTNV-1">
          <mxGeometry x="610" y="40" width="110" height="50" as="geometry" />
        </mxCell>
        <mxCell id="DaekT4KArlIRizC1PIeq-72" value="" style="edgeStyle=orthogonalEdgeStyle;rounded=0;orthogonalLoop=1;jettySize=auto;html=1;entryX=0.25;entryY=0;entryDx=0;entryDy=0;" edge="1" parent="WIyWlLk6GJQsqaUBKTNV-1" source="DaekT4KArlIRizC1PIeq-73" target="DaekT4KArlIRizC1PIeq-67">
          <mxGeometry relative="1" as="geometry" />
        </mxCell>
        <mxCell id="DaekT4KArlIRizC1PIeq-73" value="Position" style="ellipse;whiteSpace=wrap;html=1;fillColor=#a0522d;fontColor=#ffffff;strokeColor=#6D1F00;" vertex="1" parent="WIyWlLk6GJQsqaUBKTNV-1">
          <mxGeometry x="370" y="10" width="100" height="50" as="geometry" />
        </mxCell>
        <mxCell id="DaekT4KArlIRizC1PIeq-74" style="edgeStyle=orthogonalEdgeStyle;rounded=0;orthogonalLoop=1;jettySize=auto;html=1;entryX=0.5;entryY=1;entryDx=0;entryDy=0;" edge="1" parent="WIyWlLk6GJQsqaUBKTNV-1" source="DaekT4KArlIRizC1PIeq-76" target="DaekT4KArlIRizC1PIeq-81">
          <mxGeometry relative="1" as="geometry" />
        </mxCell>
        <mxCell id="DaekT4KArlIRizC1PIeq-75" style="edgeStyle=orthogonalEdgeStyle;rounded=0;orthogonalLoop=1;jettySize=auto;html=1;entryX=0.5;entryY=1;entryDx=0;entryDy=0;" edge="1" parent="WIyWlLk6GJQsqaUBKTNV-1" source="DaekT4KArlIRizC1PIeq-76" target="DaekT4KArlIRizC1PIeq-82">
          <mxGeometry relative="1" as="geometry">
            <Array as="points">
              <mxPoint x="287" y="460" />
              <mxPoint x="287" y="470" />
              <mxPoint x="484" y="470" />
            </Array>
          </mxGeometry>
        </mxCell>
        <mxCell id="DaekT4KArlIRizC1PIeq-76" value="Department" style="rounded=0;whiteSpace=wrap;html=1;fillColor=#f8cecc;strokeColor=#b85450;" vertex="1" parent="WIyWlLk6GJQsqaUBKTNV-1">
          <mxGeometry x="30" y="410" width="120" height="60" as="geometry" />
        </mxCell>
        <mxCell id="DaekT4KArlIRizC1PIeq-77" value="" style="edgeStyle=orthogonalEdgeStyle;rounded=0;orthogonalLoop=1;jettySize=auto;html=1;" edge="1" parent="WIyWlLk6GJQsqaUBKTNV-1" source="DaekT4KArlIRizC1PIeq-78" target="DaekT4KArlIRizC1PIeq-76">
          <mxGeometry relative="1" as="geometry" />
        </mxCell>
        <mxCell id="DaekT4KArlIRizC1PIeq-78" value="Name&lt;div&gt;---------&lt;/div&gt;" style="ellipse;whiteSpace=wrap;html=1;fillColor=#a0522d;fontColor=#ffffff;strokeColor=#6D1F00;" vertex="1" parent="WIyWlLk6GJQsqaUBKTNV-1">
          <mxGeometry x="120" y="595" width="110" height="50" as="geometry" />
        </mxCell>
        <mxCell id="DaekT4KArlIRizC1PIeq-79" style="edgeStyle=orthogonalEdgeStyle;rounded=0;orthogonalLoop=1;jettySize=auto;html=1;" edge="1" parent="WIyWlLk6GJQsqaUBKTNV-1" source="DaekT4KArlIRizC1PIeq-81" target="DaekT4KArlIRizC1PIeq-76">
          <mxGeometry relative="1" as="geometry">
            <Array as="points">
              <mxPoint x="230" y="440" />
            </Array>
          </mxGeometry>
        </mxCell>
        <mxCell id="DaekT4KArlIRizC1PIeq-80" style="edgeStyle=orthogonalEdgeStyle;rounded=0;orthogonalLoop=1;jettySize=auto;html=1;" edge="1" parent="WIyWlLk6GJQsqaUBKTNV-1" source="DaekT4KArlIRizC1PIeq-81" target="DaekT4KArlIRizC1PIeq-67">
          <mxGeometry relative="1" as="geometry">
            <Array as="points">
              <mxPoint x="230" y="230" />
              <mxPoint x="380" y="230" />
              <mxPoint x="380" y="270" />
            </Array>
          </mxGeometry>
        </mxCell>
        <mxCell id="DaekT4KArlIRizC1PIeq-81" value="Assigned" style="rhombus;whiteSpace=wrap;html=1;fillColor=#d5e8d4;strokeColor=#82b366;" vertex="1" parent="WIyWlLk6GJQsqaUBKTNV-1">
          <mxGeometry x="160" y="260" width="140" height="80" as="geometry" />
        </mxCell>
        <mxCell id="DaekT4KArlIRizC1PIeq-82" value="Manager" style="rhombus;whiteSpace=wrap;html=1;fillColor=#d5e8d4;strokeColor=#82b366;" vertex="1" parent="WIyWlLk6GJQsqaUBKTNV-1">
          <mxGeometry x="424" y="370" width="120" height="80" as="geometry" />
        </mxCell>
        <mxCell id="DaekT4KArlIRizC1PIeq-83" value="Meeting Room" style="rounded=0;whiteSpace=wrap;html=1;fillColor=#f8cecc;strokeColor=#b85450;" vertex="1" parent="WIyWlLk6GJQsqaUBKTNV-1">
          <mxGeometry x="715" y="700" width="120" height="60" as="geometry" />
        </mxCell>
        <mxCell id="DaekT4KArlIRizC1PIeq-84" style="edgeStyle=orthogonalEdgeStyle;rounded=0;orthogonalLoop=1;jettySize=auto;html=1;entryX=0.75;entryY=1;entryDx=0;entryDy=0;exitX=0.5;exitY=0;exitDx=0;exitDy=0;" edge="1" parent="WIyWlLk6GJQsqaUBKTNV-1" source="DaekT4KArlIRizC1PIeq-85" target="DaekT4KArlIRizC1PIeq-83">
          <mxGeometry relative="1" as="geometry" />
        </mxCell>
        <mxCell id="DaekT4KArlIRizC1PIeq-85" value="Room Number&lt;div&gt;---------------------&lt;/div&gt;" style="ellipse;whiteSpace=wrap;html=1;fillColor=#a0522d;fontColor=#ffffff;strokeColor=#6D1F00;" vertex="1" parent="WIyWlLk6GJQsqaUBKTNV-1">
          <mxGeometry x="835" y="920" width="110" height="50" as="geometry" />
        </mxCell>
        <mxCell id="DaekT4KArlIRizC1PIeq-86" style="edgeStyle=orthogonalEdgeStyle;rounded=0;orthogonalLoop=1;jettySize=auto;html=1;" edge="1" parent="WIyWlLk6GJQsqaUBKTNV-1" source="DaekT4KArlIRizC1PIeq-87" target="DaekT4KArlIRizC1PIeq-83">
          <mxGeometry relative="1" as="geometry" />
        </mxCell>
        <mxCell id="DaekT4KArlIRizC1PIeq-87" value="Size" style="ellipse;whiteSpace=wrap;html=1;fillColor=#a0522d;fontColor=#ffffff;strokeColor=#6D1F00;" vertex="1" parent="WIyWlLk6GJQsqaUBKTNV-1">
          <mxGeometry x="715" y="930" width="100" height="50" as="geometry" />
        </mxCell>
        <mxCell id="DaekT4KArlIRizC1PIeq-88" style="edgeStyle=orthogonalEdgeStyle;rounded=0;orthogonalLoop=1;jettySize=auto;html=1;entryX=0.25;entryY=1;entryDx=0;entryDy=0;" edge="1" parent="WIyWlLk6GJQsqaUBKTNV-1" source="DaekT4KArlIRizC1PIeq-89" target="DaekT4KArlIRizC1PIeq-83">
          <mxGeometry relative="1" as="geometry">
            <mxPoint x="570" y="820" as="targetPoint" />
            <Array as="points">
              <mxPoint x="640" y="870" />
              <mxPoint x="745" y="870" />
            </Array>
          </mxGeometry>
        </mxCell>
        <mxCell id="DaekT4KArlIRizC1PIeq-89" value="Maximum Occupancy" style="ellipse;whiteSpace=wrap;html=1;fillColor=#a0522d;fontColor=#ffffff;strokeColor=#6D1F00;" vertex="1" parent="WIyWlLk6GJQsqaUBKTNV-1">
          <mxGeometry x="585" y="930" width="110" height="50" as="geometry" />
        </mxCell>
        <mxCell id="DaekT4KArlIRizC1PIeq-90" style="edgeStyle=orthogonalEdgeStyle;rounded=0;orthogonalLoop=1;jettySize=auto;html=1;entryX=0.5;entryY=0;entryDx=0;entryDy=0;" edge="1" parent="WIyWlLk6GJQsqaUBKTNV-1" source="DaekT4KArlIRizC1PIeq-91" target="DaekT4KArlIRizC1PIeq-83">
          <mxGeometry relative="1" as="geometry" />
        </mxCell>
        <mxCell id="DaekT4KArlIRizC1PIeq-91" value="Combined" style="rhombus;whiteSpace=wrap;html=1;fillColor=#d5e8d4;strokeColor=#82b366;" vertex="1" parent="WIyWlLk6GJQsqaUBKTNV-1">
          <mxGeometry x="705" y="554" width="140" height="80" as="geometry" />
        </mxCell>
        <mxCell id="DaekT4KArlIRizC1PIeq-92" style="edgeStyle=orthogonalEdgeStyle;rounded=0;orthogonalLoop=1;jettySize=auto;html=1;" edge="1" parent="WIyWlLk6GJQsqaUBKTNV-1" source="DaekT4KArlIRizC1PIeq-91" target="DaekT4KArlIRizC1PIeq-83">
          <mxGeometry relative="1" as="geometry">
            <Array as="points">
              <mxPoint x="665" y="595" />
              <mxPoint x="665" y="730" />
            </Array>
          </mxGeometry>
        </mxCell>
        <mxCell id="DaekT4KArlIRizC1PIeq-93" style="edgeStyle=orthogonalEdgeStyle;rounded=0;orthogonalLoop=1;jettySize=auto;html=1;entryX=1;entryY=0.5;entryDx=0;entryDy=0;" edge="1" parent="WIyWlLk6GJQsqaUBKTNV-1" source="DaekT4KArlIRizC1PIeq-94" target="DaekT4KArlIRizC1PIeq-104">
          <mxGeometry relative="1" as="geometry" />
        </mxCell>
        <mxCell id="DaekT4KArlIRizC1PIeq-94" value="Building" style="rounded=0;whiteSpace=wrap;html=1;fillColor=#f8cecc;strokeColor=#b85450;" vertex="1" parent="WIyWlLk6GJQsqaUBKTNV-1">
          <mxGeometry x="1290" y="610" width="120" height="60" as="geometry" />
        </mxCell>
        <mxCell id="DaekT4KArlIRizC1PIeq-95" style="edgeStyle=orthogonalEdgeStyle;rounded=0;orthogonalLoop=1;jettySize=auto;html=1;entryX=1;entryY=0.5;entryDx=0;entryDy=0;exitX=0.5;exitY=1;exitDx=0;exitDy=0;" edge="1" parent="WIyWlLk6GJQsqaUBKTNV-1" source="DaekT4KArlIRizC1PIeq-98" target="DaekT4KArlIRizC1PIeq-83">
          <mxGeometry relative="1" as="geometry" />
        </mxCell>
        <mxCell id="DaekT4KArlIRizC1PIeq-96" style="edgeStyle=orthogonalEdgeStyle;rounded=0;orthogonalLoop=1;jettySize=auto;html=1;entryX=0.5;entryY=1;entryDx=0;entryDy=0;" edge="1" parent="WIyWlLk6GJQsqaUBKTNV-1" source="DaekT4KArlIRizC1PIeq-98" target="DaekT4KArlIRizC1PIeq-100">
          <mxGeometry relative="1" as="geometry">
            <Array as="points">
              <mxPoint x="1015" y="150" />
            </Array>
          </mxGeometry>
        </mxCell>
        <mxCell id="DaekT4KArlIRizC1PIeq-97" style="edgeStyle=orthogonalEdgeStyle;rounded=0;orthogonalLoop=1;jettySize=auto;html=1;" edge="1" parent="WIyWlLk6GJQsqaUBKTNV-1" source="DaekT4KArlIRizC1PIeq-98" target="DaekT4KArlIRizC1PIeq-101">
          <mxGeometry relative="1" as="geometry">
            <Array as="points">
              <mxPoint x="1015" y="300" />
              <mxPoint x="1305" y="300" />
            </Array>
          </mxGeometry>
        </mxCell>
        <mxCell id="DaekT4KArlIRizC1PIeq-98" value="Reservation" style="rhombus;whiteSpace=wrap;html=1;fillColor=#d5e8d4;strokeColor=#82b366;" vertex="1" parent="WIyWlLk6GJQsqaUBKTNV-1">
          <mxGeometry x="945" y="370" width="140" height="80" as="geometry" />
        </mxCell>
        <mxCell id="DaekT4KArlIRizC1PIeq-99" value="Reservation ID&lt;div&gt;--------------------&lt;/div&gt;" style="ellipse;whiteSpace=wrap;html=1;fillColor=#a0522d;fontColor=#ffffff;strokeColor=#6D1F00;" vertex="1" parent="WIyWlLk6GJQsqaUBKTNV-1">
          <mxGeometry x="870" y="90" width="105" height="50" as="geometry" />
        </mxCell>
        <mxCell id="DaekT4KArlIRizC1PIeq-100" value="Date" style="ellipse;whiteSpace=wrap;html=1;fillColor=#a0522d;fontColor=#ffffff;strokeColor=#6D1F00;" vertex="1" parent="WIyWlLk6GJQsqaUBKTNV-1">
          <mxGeometry x="1130" y="100" width="112" height="50" as="geometry" />
        </mxCell>
        <mxCell id="DaekT4KArlIRizC1PIeq-101" value="Number of people" style="ellipse;whiteSpace=wrap;html=1;fillColor=#a0522d;fontColor=#ffffff;strokeColor=#6D1F00;" vertex="1" parent="WIyWlLk6GJQsqaUBKTNV-1">
          <mxGeometry x="1280" y="200" width="110" height="50" as="geometry" />
        </mxCell>
        <mxCell id="DaekT4KArlIRizC1PIeq-102" style="edgeStyle=orthogonalEdgeStyle;rounded=0;orthogonalLoop=1;jettySize=auto;html=1;entryX=0.575;entryY=0.992;entryDx=0;entryDy=0;entryPerimeter=0;" edge="1" parent="WIyWlLk6GJQsqaUBKTNV-1" source="DaekT4KArlIRizC1PIeq-98" target="DaekT4KArlIRizC1PIeq-99">
          <mxGeometry relative="1" as="geometry" />
        </mxCell>
        <mxCell id="DaekT4KArlIRizC1PIeq-103" style="edgeStyle=orthogonalEdgeStyle;rounded=0;orthogonalLoop=1;jettySize=auto;html=1;entryX=1;entryY=0.75;entryDx=0;entryDy=0;" edge="1" parent="WIyWlLk6GJQsqaUBKTNV-1" source="DaekT4KArlIRizC1PIeq-104" target="DaekT4KArlIRizC1PIeq-83">
          <mxGeometry relative="1" as="geometry" />
        </mxCell>
        <mxCell id="DaekT4KArlIRizC1PIeq-104" value="Distributed" style="rhombus;whiteSpace=wrap;html=1;fillColor=#d5e8d4;strokeColor=#82b366;" vertex="1" parent="WIyWlLk6GJQsqaUBKTNV-1">
          <mxGeometry x="1060" y="770" width="100" height="70" as="geometry" />
        </mxCell>
        <mxCell id="DaekT4KArlIRizC1PIeq-105" value="Parking Space" style="rounded=0;whiteSpace=wrap;html=1;fillColor=#f8cecc;strokeColor=#b85450;" vertex="1" parent="WIyWlLk6GJQsqaUBKTNV-1">
          <mxGeometry x="240" y="720" width="120" height="60" as="geometry" />
        </mxCell>
        <mxCell id="DaekT4KArlIRizC1PIeq-106" style="edgeStyle=orthogonalEdgeStyle;rounded=0;orthogonalLoop=1;jettySize=auto;html=1;entryX=0.75;entryY=1;entryDx=0;entryDy=0;" edge="1" parent="WIyWlLk6GJQsqaUBKTNV-1" source="DaekT4KArlIRizC1PIeq-107" target="DaekT4KArlIRizC1PIeq-105">
          <mxGeometry relative="1" as="geometry" />
        </mxCell>
        <mxCell id="DaekT4KArlIRizC1PIeq-107" value="Parking Space ID&lt;div&gt;-------------------------&lt;/div&gt;" style="ellipse;whiteSpace=wrap;html=1;fillColor=#a0522d;fontColor=#ffffff;strokeColor=#6D1F00;" vertex="1" parent="WIyWlLk6GJQsqaUBKTNV-1">
          <mxGeometry x="240" y="915" width="110" height="60" as="geometry" />
        </mxCell>
        <mxCell id="DaekT4KArlIRizC1PIeq-108" style="edgeStyle=orthogonalEdgeStyle;rounded=0;orthogonalLoop=1;jettySize=auto;html=1;entryX=0.25;entryY=1;entryDx=0;entryDy=0;" edge="1" parent="WIyWlLk6GJQsqaUBKTNV-1" source="DaekT4KArlIRizC1PIeq-109" target="DaekT4KArlIRizC1PIeq-105">
          <mxGeometry relative="1" as="geometry" />
        </mxCell>
        <mxCell id="DaekT4KArlIRizC1PIeq-109" value="License Plate Number" style="ellipse;whiteSpace=wrap;html=1;fillColor=#a0522d;fontColor=#ffffff;strokeColor=#6D1F00;" vertex="1" parent="WIyWlLk6GJQsqaUBKTNV-1">
          <mxGeometry x="110" y="820" width="100" height="50" as="geometry" />
        </mxCell>
        <mxCell id="DaekT4KArlIRizC1PIeq-110" style="edgeStyle=orthogonalEdgeStyle;rounded=0;orthogonalLoop=1;jettySize=auto;html=1;entryX=1;entryY=0.5;entryDx=0;entryDy=0;" edge="1" parent="WIyWlLk6GJQsqaUBKTNV-1" source="DaekT4KArlIRizC1PIeq-111" target="DaekT4KArlIRizC1PIeq-98">
          <mxGeometry relative="1" as="geometry" />
        </mxCell>
        <mxCell id="DaekT4KArlIRizC1PIeq-111" value="Timeslot" style="ellipse;whiteSpace=wrap;html=1;fillColor=#a0522d;fontColor=#ffffff;strokeColor=#6D1F00;" vertex="1" parent="WIyWlLk6GJQsqaUBKTNV-1">
          <mxGeometry x="1230" y="340" width="110" height="60" as="geometry" />
        </mxCell>
        <mxCell id="DaekT4KArlIRizC1PIeq-112" style="edgeStyle=orthogonalEdgeStyle;rounded=0;orthogonalLoop=1;jettySize=auto;html=1;entryX=0.5;entryY=0;entryDx=0;entryDy=0;" edge="1" parent="WIyWlLk6GJQsqaUBKTNV-1" source="DaekT4KArlIRizC1PIeq-113" target="DaekT4KArlIRizC1PIeq-105">
          <mxGeometry relative="1" as="geometry" />
        </mxCell>
        <mxCell id="DaekT4KArlIRizC1PIeq-113" value="Assigned" style="rhombus;whiteSpace=wrap;html=1;fillColor=#d5e8d4;strokeColor=#82b366;" vertex="1" parent="WIyWlLk6GJQsqaUBKTNV-1">
          <mxGeometry x="270" y="560" width="130" height="80" as="geometry" />
        </mxCell>
        <mxCell id="DaekT4KArlIRizC1PIeq-114" value="&lt;b style=&quot;font-size: 25px;&quot;&gt;&lt;font color=&quot;#ff0000&quot; style=&quot;font-size: 25px;&quot;&gt;1&lt;/font&gt;&lt;/b&gt;" style="text;html=1;align=center;verticalAlign=middle;resizable=0;points=[];autosize=1;strokeColor=none;fillColor=none;fontSize=25;" vertex="1" parent="WIyWlLk6GJQsqaUBKTNV-1">
          <mxGeometry x="190" y="220" width="40" height="40" as="geometry" />
        </mxCell>
        <mxCell id="DaekT4KArlIRizC1PIeq-115" value="&lt;font color=&quot;#ff0008&quot; style=&quot;font-size: 25px;&quot;&gt;N&lt;/font&gt;" style="text;html=1;align=center;verticalAlign=middle;whiteSpace=wrap;rounded=0;" vertex="1" parent="WIyWlLk6GJQsqaUBKTNV-1">
          <mxGeometry x="180" y="350" width="60" height="30" as="geometry" />
        </mxCell>
        <mxCell id="DaekT4KArlIRizC1PIeq-116" value="&lt;font color=&quot;#ff0000&quot; style=&quot;font-size: 25px;&quot;&gt;1&lt;/font&gt;" style="text;html=1;align=center;verticalAlign=middle;resizable=0;points=[];autosize=1;strokeColor=none;fillColor=none;" vertex="1" parent="WIyWlLk6GJQsqaUBKTNV-1">
          <mxGeometry x="300" y="514" width="40" height="40" as="geometry" />
        </mxCell>
        <mxCell id="DaekT4KArlIRizC1PIeq-117" value="&lt;font color=&quot;#ff0000&quot; style=&quot;font-size: 25px;&quot;&gt;N&lt;/font&gt;" style="text;html=1;align=center;verticalAlign=middle;resizable=0;points=[];autosize=1;strokeColor=none;fillColor=none;" vertex="1" parent="WIyWlLk6GJQsqaUBKTNV-1">
          <mxGeometry x="1166" y="760" width="40" height="40" as="geometry" />
        </mxCell>
        <mxCell id="DaekT4KArlIRizC1PIeq-118" value="&lt;font color=&quot;#ff0000&quot; style=&quot;font-size: 25px;&quot;&gt;1&lt;/font&gt;" style="text;html=1;align=center;verticalAlign=middle;resizable=0;points=[];autosize=1;strokeColor=none;fillColor=none;" vertex="1" parent="WIyWlLk6GJQsqaUBKTNV-1">
          <mxGeometry x="1020" y="760" width="40" height="40" as="geometry" />
        </mxCell>
        <mxCell id="DaekT4KArlIRizC1PIeq-119" value="&lt;font color=&quot;#ff0000&quot; style=&quot;font-size: 25px;&quot;&gt;1&lt;/font&gt;" style="text;html=1;align=center;verticalAlign=middle;resizable=0;points=[];autosize=1;strokeColor=none;fillColor=none;" vertex="1" parent="WIyWlLk6GJQsqaUBKTNV-1">
          <mxGeometry x="300" y="634" width="40" height="40" as="geometry" />
        </mxCell>
        <mxCell id="DaekT4KArlIRizC1PIeq-120" value="&lt;font color=&quot;#ff0000&quot; style=&quot;font-size: 25px;&quot;&gt;1&lt;/font&gt;" style="text;html=1;align=center;verticalAlign=middle;resizable=0;points=[];autosize=1;strokeColor=none;fillColor=none;" vertex="1" parent="WIyWlLk6GJQsqaUBKTNV-1">
          <mxGeometry x="975" y="443" width="40" height="40" as="geometry" />
        </mxCell>
        <mxCell id="DaekT4KArlIRizC1PIeq-121" value="&lt;font color=&quot;#ff0000&quot; style=&quot;font-size: 25px;&quot;&gt;N&lt;/font&gt;" style="text;html=1;align=center;verticalAlign=middle;resizable=0;points=[];autosize=1;strokeColor=none;fillColor=none;" vertex="1" parent="WIyWlLk6GJQsqaUBKTNV-1">
          <mxGeometry x="905" y="370" width="40" height="40" as="geometry" />
        </mxCell>
        <mxCell id="DaekT4KArlIRizC1PIeq-122" value="&lt;font color=&quot;#ff0000&quot; style=&quot;font-size: 25px;&quot;&gt;1&lt;/font&gt;" style="text;html=1;align=center;verticalAlign=middle;resizable=0;points=[];autosize=1;strokeColor=none;fillColor=none;" vertex="1" parent="WIyWlLk6GJQsqaUBKTNV-1">
          <mxGeometry x="675" y="554" width="40" height="40" as="geometry" />
        </mxCell>
        <mxCell id="DaekT4KArlIRizC1PIeq-123" value="&lt;font color=&quot;#ff0000&quot; style=&quot;font-size: 25px;&quot;&gt;1&lt;/font&gt;" style="text;html=1;align=center;verticalAlign=middle;resizable=0;points=[];autosize=1;strokeColor=none;fillColor=none;" vertex="1" parent="WIyWlLk6GJQsqaUBKTNV-1">
          <mxGeometry x="775" y="630" width="40" height="40" as="geometry" />
        </mxCell>
        <mxCell id="DaekT4KArlIRizC1PIeq-124" value="&lt;font color=&quot;#ff0000&quot; style=&quot;font-size: 25px;&quot;&gt;1&lt;/font&gt;" style="text;html=1;align=center;verticalAlign=middle;resizable=0;points=[];autosize=1;strokeColor=none;fillColor=none;" vertex="1" parent="WIyWlLk6GJQsqaUBKTNV-1">
          <mxGeometry x="450" y="460" width="40" height="40" as="geometry" />
        </mxCell>
        <mxCell id="DaekT4KArlIRizC1PIeq-125" value="&lt;font color=&quot;#ff0000&quot; style=&quot;font-size: 25px;&quot;&gt;1&lt;/font&gt;" style="text;html=1;align=center;verticalAlign=middle;resizable=0;points=[];autosize=1;strokeColor=none;fillColor=none;" vertex="1" parent="WIyWlLk6GJQsqaUBKTNV-1">
          <mxGeometry x="390" y="370" width="40" height="40" as="geometry" />
        </mxCell>
      </root>
    </mxGraphModel>
  </diagram>
</mxfile>
